<?xml version="1.0" standalone="no"?>
<!DOCTYPE svg PUBLIC "-//W3C//DTD SVG 1.1//EN" "http://www.w3.org/Graphics/SVG/1.1/DTD/svg11.dtd" >
<svg xmlns="http://www.w3.org/2000/svg" xmlns:xlink="http://www.w3.org/1999/xlink" version="1.1">
<metadata>
Created by FontForge 20170731 at Wed Jun  5 19:40:59 2002
 By ,,,
Copyright (c) 1988, 1990, 1994, 2002 Adobe Systems Incorporated.  All Rights Reserved. (c) 1981, 2002 Heidelberger Druckmaschinen AG. All rights reserved.
</metadata>
<defs>
<font id="FrutigerLTStd-UltraBlack" horiz-adv-x="685" >
  <font-face 
    font-family="Frutiger LT Std 95 UltraBlack"
    font-weight="950"
    font-stretch="normal"
    units-per-em="1000"
    panose-1="2 11 9 4 4 5 4 3 2 4"
    ascent="750"
    descent="-250"
    x-height="521"
    cap-height="698"
    bbox="-173 -250 1166 961"
    underline-thickness="50"
    underline-position="-200"
    unicode-range="U+0020-FB02"
  />
<missing-glyph horiz-adv-x="500" 
d="M0 0v700h500v-700h-500zM250 395l170 255h-340zM280 350l170 -255v510zM80 50h340l-170 255zM50 605v-510l170 255z" />
    <glyph glyph-name="fi" unicode="fi" horiz-adv-x="815" 
d="M765 750v-174h-252v174h252zM513 0v521h252v-521h-252zM92 0v371h-92v150h92v44q2 100 62.5 148.5t162.5 48.5q86 0 156 -18v-139q-28 7 -55 7q-26 0 -45 -17t-19 -47v-27h107v-150h-107v-371h-262z" />
    <glyph glyph-name="fl" unicode="fl" horiz-adv-x="815" 
d="M513 0v750h252v-750h-252zM92 0v371h-92v150h92v44q2 100 62.5 148.5t162.5 48.5q86 0 156 -18v-139q-28 7 -55 7q-26 0 -45 -17t-19 -47v-27h107v-150h-107v-371h-262z" />
    <glyph glyph-name=".notdef" horiz-adv-x="500" 
d="M0 0v700h500v-700h-500zM250 395l170 255h-340zM280 350l170 -255v510zM80 50h340l-170 255zM50 605v-510l170 255z" />
    <glyph glyph-name=".null" horiz-adv-x="0" 
 />
    <glyph glyph-name="nonmarkingreturn" horiz-adv-x="333" 
 />
    <glyph glyph-name="space" unicode=" " horiz-adv-x="370" 
 />
    <glyph glyph-name="exclam" unicode="!" horiz-adv-x="426" 
d="M79 698h268l-39 -440h-190zM104 186h218v-186h-218v186z" />
    <glyph glyph-name="quotedbl" unicode="&#x22;" horiz-adv-x="556" 
d="M310 393v305h150v-305h-150zM96 393v305h150v-305h-150z" />
    <glyph glyph-name="numbersign" unicode="#" horiz-adv-x="600" 
d="M340 396h-67l-13 -91h67zM179 700h136l-24 -178h67l24 178h136l-24 -178h68v-126h-86l-13 -91h69v-126h-86l-25 -179h-136l25 179h-67l-25 -179h-136l25 179h-69v126h86l13 91h-68v126h86z" />
    <glyph glyph-name="dollar" unicode="$" horiz-adv-x="630" 
d="M253 -120v120q-96 0 -217 32v154q94 -36 182 -36q114 0 114 52q0 20 -16 33t-42 20.5t-57 15t-62.5 21t-57.5 34t-42 58t-16 89.5q0 85 57.5 136.5t156.5 62.5v118h132v-118q90 -2 166 -24v-156q-84 30 -164 30q-21 0 -35 -1.5t-29.5 -7t-23.5 -18t-8 -31.5
q0 -18 22.5 -30.5t56 -19t73 -19.5t73 -30t56 -53t22.5 -86q0 -86 -58.5 -142t-150.5 -74v-130h-132z" />
    <glyph glyph-name="percent" unicode="%" horiz-adv-x="963" 
d="M224 294q-97 0 -148 55.5t-51 155.5t50.5 152.5t148.5 52.5t149 -52.5t51 -152.5t-51 -155.5t-149 -55.5zM224 404q8 0 14.5 2.5t11 7.5t8 9.5t5 13t3 14t2 15.5t0.5 14v14v11v10.5v13.5t-0.5 13.5t-2 14.5t-3 13t-5 12t-8 9t-11 7t-14.5 2q-43 -9 -43 -95v-11v-14
t0.5 -14t1.5 -15t3 -14t5 -13.5t7.5 -10t11 -7t14.5 -2.5zM738 -12q-97 0 -148 55.5t-51 155.5t50.5 152.5t148.5 52.5t149 -52.5t51 -152.5t-51 -155.5t-149 -55.5zM738 98q8 0 14.5 2.5t11 7.5t8 9.5t5 13t3 14t2 15.5t0.5 14v14v11v10.5v13.5t-0.5 13.5t-2 14.5t-3 13
t-5 12t-8 9t-11 7t-14.5 2q-15 0 -25 -8.5t-13.5 -25.5t-4 -27.5t-0.5 -28.5v-5v-11v-14t0.5 -14t1.5 -15t3 -14t5 -13.5t7.5 -10t11 -7t14.5 -2.5zM770 729l-452 -760h-122l452 760h122z" />
    <glyph glyph-name="ampersand" unicode="&#x26;" horiz-adv-x="963" 
d="M631 396h250q-26 -117 -130 -216q144 -118 210 -180h-335l-43 44q-94 -56 -244 -56q-57 0 -108 9.5t-99 31t-76.5 64t-28.5 101.5q0 117 142 175q-104 65 -104 154q0 53 26 91.5t71 58.5t95.5 28.5t111.5 8.5q303 0 303 -153q0 -61 -57.5 -107.5t-127.5 -69.5
q48 -32 95 -68q36 37 49 84zM443 163l-135 107q-21 -19 -30 -34t-9 -39q0 -31 27.5 -48t63.5 -17q45 0 83 31zM369 456q4 2 16.5 10t17.5 11.5t14.5 11t13.5 13.5t7.5 15t3.5 19q0 54 -70 54q-33 0 -55 -14t-22 -40q0 -6 1.5 -11.5t3 -9.5t5.5 -9.5t7 -8.5t9 -8t8.5 -7.5
t10 -7l10 -6t10.5 -6.5t9 -6z" />
    <glyph glyph-name="quotesingle" unicode="'" horiz-adv-x="316" 
d="M83 393v305h150v-305h-150z" />
    <glyph glyph-name="parenleft" unicode="(" horiz-adv-x="370" 
d="M354 -140h-183q-136 225 -136 448q0 220 136 448h183q-113 -205 -113 -448q0 -246 113 -448z" />
    <glyph glyph-name="parenright" unicode=")" horiz-adv-x="370" 
d="M199 -140h-183q113 205 113 448q0 246 -113 448h183q136 -225 136 -448q0 -220 -136 -448z" />
    <glyph glyph-name="asterisk" unicode="*" horiz-adv-x="537" 
d="M322 549l136 66l39 -147l-141 -25l103 -106l-123 -83l-68 130l-72 -130l-122 83l110 107l-144 24l40 147l139 -66l-25 149h151z" />
    <glyph glyph-name="plus" unicode="+" horiz-adv-x="600" 
d="M219 333v171h162v-171h171v-162h-171v-171h-162v171h-171v162h171z" />
    <glyph glyph-name="comma" unicode="," horiz-adv-x="370" 
d="M92 192h212l-115 -305h-159z" />
    <glyph glyph-name="hyphen" unicode="-" horiz-adv-x="370" 
d="M45 182v174h280v-174h-280z" />
    <glyph glyph-name="period" unicode="." horiz-adv-x="370" 
d="M76 0v192h218v-192h-218z" />
    <glyph glyph-name="slash" unicode="/" horiz-adv-x="370" 
d="M253 710h177l-313 -722h-177z" />
    <glyph glyph-name="zero" unicode="0" horiz-adv-x="740" 
d="M23 349q0 160 90.5 260.5t257.5 100.5q159 0 252.5 -98.5t93.5 -262.5q0 -166 -90 -263.5t-256 -97.5q-165 0 -256.5 98.5t-91.5 262.5zM285 349q0 -35 0.5 -53t2.5 -46.5t7.5 -43.5t15 -31.5t24.5 -23.5t36 -7q20 0 35 7t24 23.5t14.5 31.5t7.5 43.5t2.5 46.5t0.5 53
q0 37 -0.5 55t-2.5 47t-7.5 43.5t-14.5 30.5t-24 22.5t-35 6.5q-21 0 -36 -6.5t-24.5 -22.5t-15 -30.5t-7.5 -43.5t-2.5 -47t-0.5 -55z" />
    <glyph glyph-name="one" unicode="1" horiz-adv-x="520" 
d="M58 341l-71 182l263 175h215v-698h-252v453z" />
    <glyph glyph-name="two" unicode="2" horiz-adv-x="592" 
d="M286 168h286v-168h-552v196q122 61 204 114q28 20 46 35t34 41t16 53q0 50 -37.5 73.5t-92.5 23.5q-86 0 -156 -30v182q124 22 221 22q62 0 114.5 -11t100 -35.5t75 -71t27.5 -111.5q0 -46 -19 -88t-45 -72t-68.5 -60.5t-74.5 -48.5t-79 -42v-2z" />
    <glyph glyph-name="three" unicode="3" horiz-adv-x="592" 
d="M109 274v153q38 -2 56 -2q25 0 41 1t41 6t38.5 18t13.5 34q0 70 -102 70q-84 0 -169 -27v156q89 27 230 27q53 0 103.5 -10.5t96.5 -32.5t74.5 -61.5t28.5 -91.5q0 -119 -134 -158v-2q144 -36 144 -161q0 -54 -27 -95t-73 -64.5t-98.5 -34.5t-109.5 -11q-141 0 -242 29
v162q83 -29 176 -29q53 0 82.5 13t29.5 50q0 68 -114 68q-35 0 -86 -7z" />
    <glyph glyph-name="four" unicode="4" horiz-adv-x="704" 
d="M148 296h175v204zM565 306h123v-172h-123v-134h-242v134h-307v234l299 330h250v-392z" />
    <glyph glyph-name="five" unicode="5" horiz-adv-x="592" 
d="M539 698v-162h-263v-108q27 3 78 3q91 0 154 -59t63 -155q0 -65 -27.5 -111.5t-75.5 -71t-101 -35.5t-115 -11q-103 0 -215 30v159q92 -21 147 -21q125 0 125 80q0 85 -138 85q-59 0 -125 -16v393h493z" />
    <glyph glyph-name="six" unicode="6" horiz-adv-x="684" 
d="M604 691v-161q-2 0 -23 5.5t-25.5 6.5t-23.5 4.5t-30.5 4.5t-31 2t-40.5 1q-31 0 -58.5 -7t-51.5 -22t-38 -43t-14 -67q52 42 157 42q99 0 171 -59.5t72 -163.5q0 -82 -46.5 -139.5t-114 -82t-148.5 -24.5q-153 0 -248 96.5t-95 249.5q0 180 103.5 278t271.5 98
q124 0 213 -19zM438 234q0 41 -23 66t-63 25q-41 0 -62.5 -26t-21.5 -71q0 -39 22 -64.5t62 -25.5t63 27t23 69z" />
    <glyph glyph-name="seven" unicode="7" horiz-adv-x="592" 
d="M12 698h568v-192l-251 -506h-300l297 506h-314v192z" />
    <glyph glyph-name="eight" unicode="8" horiz-adv-x="684" 
d="M152 355v2q-65 21 -96.5 58.5t-31.5 103.5q0 43 19 77t50 55t73.5 34.5t85 19t89.5 5.5q61 0 113.5 -9t99.5 -29.5t74 -59.5t27 -93q0 -65 -32 -102.5t-94 -60.5v-1q65 -16 104 -58t39 -111q0 -55 -29.5 -95.5t-80 -62t-105.5 -31t-116 -9.5q-59 0 -113.5 9.5t-105 31
t-80.5 62t-30 95.5q0 137 140 169zM266 501q0 -37 20 -59t55 -23q33 -1 52.5 22t19.5 58q0 34 -19.5 56.5t-52.5 22.5q-35 0 -55 -22t-20 -55zM264 224q0 -41 18.5 -66.5t58.5 -25.5t59.5 26t19.5 68q0 39 -19.5 64t-59.5 25q-77 0 -77 -91z" />
    <glyph glyph-name="nine" unicode="9" horiz-adv-x="684" 
d="M80 7v161q92 -24 174 -24q68 0 115.5 33t46.5 106q-52 -42 -157 -42q-99 0 -171 59.5t-72 163.5q0 82 46.5 139.5t114 82t148.5 24.5q153 0 248 -96.5t95 -249.5q0 -180 -103.5 -278t-271.5 -98q-124 0 -213 19zM246 464q0 -41 23 -66t63 -25q41 0 62.5 26t21.5 71
q0 39 -22 64.5t-62 25.5t-63 -27t-23 -69z" />
    <glyph glyph-name="colon" unicode=":" horiz-adv-x="370" 
d="M76 0v192h218v-192h-218zM76 329v192h218v-192h-218z" />
    <glyph glyph-name="semicolon" unicode=";" horiz-adv-x="370" 
d="M92 192h212l-115 -305h-159zM76 521h218v-192h-218v192z" />
    <glyph glyph-name="less" unicode="&#x3c;" horiz-adv-x="600" 
d="M552 129v-149l-504 198v150l504 198v-149l-312 -124z" />
    <glyph glyph-name="equal" unicode="=" horiz-adv-x="600" 
d="M552 455v-162h-504v162h504zM552 211v-162h-504v162h504z" />
    <glyph glyph-name="greater" unicode="&#x3e;" horiz-adv-x="600" 
d="M48 129l312 124l-312 124v149l504 -198v-150l-504 -198v149z" />
    <glyph glyph-name="question" unicode="?" horiz-adv-x="574" 
d="M347 258h-200q3 56 17.5 93.5t34 54.5t38 28.5t31.5 25.5t13 35q0 25 -25.5 33t-73.5 8q-68 0 -141 -33v170q119 37 218 37q43 0 85 -7t87.5 -23.5t73.5 -52t28 -85.5q0 -37 -14.5 -67.5t-36.5 -50t-46.5 -39.5t-45.5 -36t-33.5 -40t-9.5 -51zM138 186h218v-186h-218v186
z" />
    <glyph glyph-name="at" unicode="@" horiz-adv-x="800" 
d="M387 275q37 0 58 23t21 54q0 33 -19 52t-54 19t-57.5 -21t-22.5 -60q0 -28 19 -47.5t55 -19.5zM615 150h120q-112 -162 -324 -162q-166 0 -276.5 103.5t-110.5 264.5t112 257.5t282 96.5q160 0 259 -89t99 -207q0 -56 -22 -103t-54 -76t-70.5 -49t-70.5 -28.5t-55 -8.5
q-54 0 -57 49h-2q-30 -49 -101 -49q-76 0 -122.5 54t-46.5 131q0 89 60.5 155t150.5 66q79 0 122 -60l10 41h95l-45 -222q-5 -22 -5 -36q0 -19 18 -19q36 0 60.5 38t24.5 113q0 96 -68 143t-183 47q-120 0 -195.5 -74.5t-75.5 -188.5q0 -105 77 -172t190 -67q125 0 204 52z
" />
    <glyph glyph-name="A" unicode="A" horiz-adv-x="833" 
d="M-15 0l245 698h369l249 -698h-281l-46 151h-226l-43 -151h-267zM409 548l-77 -229h155l-76 229h-2z" />
    <glyph glyph-name="B" unicode="B" horiz-adv-x="778" 
d="M50 0v698h439q48 0 89 -8.5t76 -27.5t55 -53.5t20 -82.5q0 -134 -144 -171v-2q70 -9 113.5 -56.5t43.5 -102.5q0 -51 -16.5 -87.5t-42 -57t-66 -32t-76.5 -14.5t-86 -3h-405zM302 287v-143h70q42 0 72 17.5t30 54.5q0 71 -100 71h-72zM302 566v-135h67q98 0 98 67
q0 68 -92 68h-73z" />
    <glyph glyph-name="C" unicode="C" horiz-adv-x="648" 
d="M629 201v-185q-100 -28 -192 -28q-183 0 -300.5 96t-117.5 275q0 113 58.5 194t151.5 119t208 38q68 0 190 -22v-184q-82 26 -134 26q-89 0 -144.5 -46t-55.5 -129q0 -87 52.5 -134t138.5 -47q67 0 145 27z" />
    <glyph glyph-name="D" unicode="D" horiz-adv-x="815" 
d="M50 0v698h393q80 0 138.5 -15.5t106 -53.5t72 -108.5t24.5 -173.5q0 -347 -352 -347h-382zM318 536v-362h67q69 0 94 43.5t25 136.5q0 95 -25.5 138.5t-94.5 43.5h-66z" />
    <glyph glyph-name="E" unicode="E" 
d="M41 0v698h605v-168h-343v-99h328v-168h-328v-95h350v-168h-612z" />
    <glyph glyph-name="F" unicode="F" horiz-adv-x="667" 
d="M41 0v698h598v-168h-330v-113h320v-168h-320v-249h-268z" />
    <glyph glyph-name="G" unicode="G" horiz-adv-x="778" 
d="M726 354v-328q-129 -38 -289 -38q-183 0 -300.5 96t-117.5 275q0 113 58.5 194t151.5 119t208 38q152 0 261 -26v-188q-69 40 -184 40q-102 0 -161.5 -50.5t-59.5 -143.5q0 -79 35.5 -129.5t110.5 -50.5q41 0 57 6v186h230z" />
    <glyph glyph-name="H" unicode="H" horiz-adv-x="815" 
d="M497 457v241h268v-698h-268v251h-179v-251h-268v698h268v-241h179z" />
    <glyph glyph-name="I" unicode="I" horiz-adv-x="370" 
d="M51 698h268v-698h-268v698z" />
    <glyph glyph-name="J" unicode="J" horiz-adv-x="481" 
d="M431 698v-478q0 -104 -63 -168t-195 -64q-75 0 -169 25v189q26 -16 60 -16q50 0 74.5 27t24.5 70v415h268z" />
    <glyph glyph-name="K" unicode="K" horiz-adv-x="815" 
d="M309 698v-274h2l167 274h305l-235 -327l257 -371h-320l-174 296h-2v-296h-268v698h268z" />
    <glyph glyph-name="L" unicode="L" horiz-adv-x="667" 
d="M50 0v698h268v-492h329v-206h-597z" />
    <glyph glyph-name="M" unicode="M" horiz-adv-x="1074" 
d="M50 0v698h396l91 -382h2l90 382h395v-698h-240l-4 548h-2l-137 -548h-223l-133 548h-4l-3 -548h-228z" />
    <glyph glyph-name="N" unicode="N" horiz-adv-x="852" 
d="M45 0v698h401l129 -492h2v492h230v-698h-394l-136 506h-2v-506h-230z" />
    <glyph glyph-name="O" unicode="O" horiz-adv-x="815" 
d="M796 349q0 -176 -102.5 -268.5t-287.5 -92.5t-286 92t-101 269q0 174 101.5 267.5t285.5 93.5q185 0 287.5 -93.5t102.5 -267.5zM299 349q0 -193 107 -193q37 0 61 18t33.5 52.5t12 59t3.5 63.5q-3 193 -110 193t-107 -193z" />
    <glyph glyph-name="P" unicode="P" horiz-adv-x="796" 
d="M50 0v698h461q35 0 68.5 -6.5t68.5 -24t60.5 -43.5t42 -69t16.5 -97q0 -129 -72 -193t-185 -64h-192v-201h-268zM311 536v-173h59q37 0 63 5.5t46 26.5t20 58q0 50 -35 66.5t-95 16.5h-58z" />
    <glyph glyph-name="Q" unicode="Q" horiz-adv-x="815" 
d="M786 -141h-292l-99 129q-180 3 -278 95t-98 266t101.5 267.5t285.5 93.5q185 0 287.5 -93.5t102.5 -267.5q0 -221 -160 -310zM299 349q0 -193 107 -193q37 0 61 18t33.5 52.5t12 59t3.5 63.5q-3 193 -110 193t-107 -193z" />
    <glyph glyph-name="R" unicode="R" horiz-adv-x="778" 
d="M41 0v698h433q270 0 270 -186q0 -145 -167 -185v-2q76 -13 118 -75q23 -41 39 -131.5t27 -118.5h-279q-3 13 -13.5 95t-23.5 106q-18 36 -76 36h-60v-237h-268zM297 542v-149h70q25 0 41 2t33.5 9.5t26 24t8.5 41.5q0 43 -28 57.5t-77 14.5h-74z" />
    <glyph glyph-name="S" unicode="S" 
d="M615 686v-179q-100 35 -207 35q-115 0 -115 -46q0 -21 27 -33.5t68 -18t88.5 -19t88.5 -33t68 -63.5t27 -107q0 -67 -30.5 -115t-82.5 -72.5t-107.5 -35.5t-119.5 -11q-145 0 -288 33v181q110 -46 240 -46q120 0 120 48q0 19 -20 30.5t-52.5 19t-72 15t-78.5 21.5
t-71.5 36t-52.5 62.5t-20 95.5q0 226 359 226q114 0 231 -24z" />
    <glyph glyph-name="T" unicode="T" horiz-adv-x="760" 
d="M750 698v-206h-236v-492h-268v492h-236v206h740z" />
    <glyph glyph-name="U" unicode="U" horiz-adv-x="796" 
d="M317 698v-414q0 -116 83 -116q49 0 67 29t18 86v415h262v-410q0 -161 -90.5 -230.5t-259.5 -69.5q-75 0 -137 16t-110 49.5t-74.5 89.5t-26.5 131v424h268z" />
    <glyph glyph-name="V" unicode="V" horiz-adv-x="796" 
d="M235 0l-249 698h287l130 -418h2l131 418h274l-258 -698h-317z" />
    <glyph glyph-name="W" unicode="W" horiz-adv-x="1111" 
d="M235 698l85 -446h2l112 446h257l109 -446h2l86 446h239l-168 -698h-288l-117 456h-2l-111 -456h-294l-163 698h251z" />
    <glyph glyph-name="X" unicode="X" horiz-adv-x="833" 
d="M239 358l-220 340h309l104 -206l112 206h282l-234 -340l252 -358h-311l-131 236l-122 -236h-291z" />
    <glyph glyph-name="Y" unicode="Y" horiz-adv-x="759" 
d="M774 698l-262 -484v-214h-268v214l-259 484h291l109 -292h2l110 292h277z" />
    <glyph glyph-name="Z" unicode="Z" 
d="M32 698h622v-212l-331 -300h342v-186h-645v212l342 306h-330v180z" />
    <glyph glyph-name="bracketleft" unicode="[" horiz-adv-x="389" 
d="M33 756h324v-144h-132v-608h132v-144h-324v896z" />
    <glyph glyph-name="backslash" unicode="\" horiz-adv-x="370" 
d="M-60 710h178l312 -722h-176z" />
    <glyph glyph-name="bracketright" unicode="]" horiz-adv-x="389" 
d="M356 -140h-324v144h132v608h-132v144h324v-896z" />
    <glyph glyph-name="asciicircum" unicode="^" horiz-adv-x="600" 
d="M207 333h-154l174 365h146l174 -365h-154l-93 197z" />
    <glyph glyph-name="underscore" unicode="_" horiz-adv-x="500" 
d="M0 -75h500v-50h-500v50z" />
    <glyph glyph-name="grave" unicode="`" horiz-adv-x="278" 
d="M-83 750h237l99 -156h-139z" />
    <glyph glyph-name="a" unicode="a" horiz-adv-x="648" 
d="M75 357v146q107 30 218 30q49 0 89 -4t85 -17.5t75 -36t50 -63t20 -95.5v-317h-234v75h-2q-52 -87 -170 -87q-80 0 -135.5 38t-55.5 115q0 192 269 192q18 0 98 -7q-1 45 -37 60t-96 15q-86 0 -174 -44zM382 213v16h-25q-32 0 -53.5 -3t-40 -17t-18.5 -39q0 -50 59 -50
q37 0 57.5 28t20.5 65z" />
    <glyph glyph-name="b" unicode="b" horiz-adv-x="704" 
d="M50 0v750h252v-296h2q55 79 157 79q111 0 166.5 -74.5t55.5 -189.5q0 -59 -12.5 -108t-39 -88.5t-71.5 -62t-106 -22.5q-63 0 -102.5 24.5t-65.5 82.5h-2v-95h-234zM295 263q0 -107 62 -107q64 0 64 113q0 108 -62 108q-38 0 -51 -30t-13 -84z" />
    <glyph glyph-name="c" unicode="c" horiz-adv-x="556" 
d="M529 169v-155q-81 -26 -187 -26q-157 0 -240 73t-83 209q0 131 82 197t241 66q107 0 183 -22v-154q-58 26 -113 26q-58 0 -91.5 -30t-33.5 -87q0 -60 34 -94t91 -34q65 0 117 31z" />
    <glyph glyph-name="d" unicode="d" horiz-adv-x="704" 
d="M654 0h-234v95h-2q-26 -58 -65.5 -82.5t-102.5 -24.5q-61 0 -106 22.5t-71.5 62t-39 88.5t-12.5 108q0 115 55.5 189.5t166.5 74.5q102 0 157 -79h2v296h252v-750zM409 263q0 54 -13 84t-51 30q-62 0 -62 -108q0 -113 64 -113q62 0 62 107z" />
    <glyph glyph-name="e" unicode="e" horiz-adv-x="630" 
d="M264 310h131q0 103 -63 103q-39 0 -55 -32.5t-13 -70.5zM613 200h-348q5 -80 139 -80q108 0 171 33v-135q-96 -30 -235 -30q-157 0 -240 73t-83 209q0 131 82 197t241 66q273 0 273 -302v-31z" />
    <glyph glyph-name="f" unicode="f" horiz-adv-x="463" 
d="M92 0v371h-92v150h92v44q2 100 62.5 148.5t162.5 48.5q86 0 156 -18v-139q-28 7 -55 7q-26 0 -45 -17t-19 -47v-27h107v-150h-107v-371h-262z" />
    <glyph glyph-name="g" unicode="g" horiz-adv-x="704" 
d="M55 -190v168q86 -50 196 -50q83 0 124 38t41 121h-2q-61 -87 -171 -87q-111 0 -166.5 73.5t-55.5 185.5q0 120 55 197t169 77q67 0 115.5 -30.5t59.5 -87.5h2v106h236v-469q0 -56 -15.5 -102.5t-51 -86.5t-103 -62.5t-162.5 -22.5q-161 0 -271 32zM289 266
q0 -104 61 -104q66 0 66 101q0 108 -65 108q-62 0 -62 -105z" />
    <glyph glyph-name="h" unicode="h" 
d="M46 0v750h252v-294h2q19 33 61.5 55t94.5 22q183 0 183 -171v-362h-252v300q0 16 -1 24.5t-4.5 21.5t-13 19t-25.5 6q-21 0 -31.5 -13t-12 -25t-1.5 -33v-300h-252z" />
    <glyph glyph-name="i" unicode="i" horiz-adv-x="352" 
d="M50 0v521h252v-521h-252zM302 750v-174h-252v174h252z" />
    <glyph glyph-name="j" unicode="j" horiz-adv-x="352" 
d="M50 521h252v-545q0 -99 -52.5 -148.5t-140.5 -49.5q-83 0 -153 16v147q18 -7 41 -7q27 0 40 19t13 46v522zM50 750h252v-174h-252v174z" />
    <glyph glyph-name="k" unicode="k" horiz-adv-x="741" 
d="M302 750v-436h2l144 207h285l-176 -230l183 -291h-294l-142 253h-2v-253h-252v750h252z" />
    <glyph glyph-name="l" unicode="l" horiz-adv-x="352" 
d="M50 750h252v-750h-252v750z" />
    <glyph glyph-name="m" unicode="m" horiz-adv-x="1020" 
d="M43 0v521h238v-90h2q42 102 178 102q57 0 103 -22.5t60 -66.5h2q12 42 63 65.5t104 23.5q38 0 68 -7.5t49 -18t32.5 -30t20 -35t10 -43t4 -43t0.5 -44.5v-312h-252v300q0 21 -1.5 33t-12 25t-31.5 13q-16 0 -25.5 -6t-13 -19t-4.5 -21.5t-1 -24.5v-300h-252v300
q0 16 -1 24.5t-4.5 21.5t-13 19t-25.5 6q-21 0 -31.5 -13t-12 -25t-1.5 -33v-300h-252z" />
    <glyph glyph-name="n" unicode="n" 
d="M46 0v521h238v-90h2q21 52 67 77t103 25q183 0 183 -171v-362h-252v300q0 16 -1 24.5t-4.5 21.5t-13 19t-25.5 6q-21 0 -31.5 -13t-12 -25t-1.5 -33v-300h-252z" />
    <glyph glyph-name="o" unicode="o" 
d="M19 270q0 131 82 197t241 66t241.5 -66.5t82.5 -196.5q0 -136 -83.5 -209t-240.5 -73t-240 73t-83 209zM287 270q0 -66 10.5 -99t44.5 -33t45 33t11 99q0 55 -11 84t-45 29t-44.5 -29t-10.5 -84z" />
    <glyph glyph-name="p" unicode="p" horiz-adv-x="704" 
d="M50 -210v731h234v-95h2q26 58 65.5 82.5t102.5 24.5q61 0 106 -22.5t71.5 -62t39 -88.5t12.5 -108q0 -115 -55.5 -189.5t-166.5 -74.5q-102 0 -157 79h-2v-277h-252zM295 258q0 -54 13 -84t51 -30q62 0 62 108q0 113 -64 113q-62 0 -62 -107z" />
    <glyph glyph-name="q" unicode="q" horiz-adv-x="704" 
d="M402 -210v277h-2q-55 -79 -157 -79q-111 0 -166.5 74.5t-55.5 189.5q0 59 12.5 108t39 88.5t71.5 62t106 22.5q63 0 102.5 -24.5t65.5 -82.5h2v95h234v-731h-252zM409 258q0 107 -62 107q-64 0 -64 -113q0 -108 62 -108q38 0 51 30t13 84z" />
    <glyph glyph-name="r" unicode="r" horiz-adv-x="500" 
d="M50 521h236v-118h2q53 130 159 130q24 0 41 -5v-209q-19 8 -57 8q-53 0 -91 -40.5t-38 -97.5v-189h-252v521z" />
    <glyph glyph-name="s" unicode="s" horiz-adv-x="556" 
d="M32 18v149q78 -47 185 -47q92 0 92 34q0 17 -30 26t-73 16t-86 20.5t-73 49t-30 91.5q0 53 27 90t74 54.5t92.5 24.5t99.5 7q83 0 188 -22v-140q-88 30 -164 30q-87 0 -87 -36q0 -14 30 -21t73 -13t86 -18.5t73 -46.5t30 -89q0 -53 -27.5 -92t-73 -59t-92.5 -29t-96 -9
q-100 0 -218 30z" />
    <glyph glyph-name="t" unicode="t" horiz-adv-x="463" 
d="M0 521h89v120l252 77v-197h114v-150h-114v-147q0 -32 15 -50t40 -18q32 0 59 9v-150q-93 -27 -173 -27q-98 0 -145.5 50t-47.5 153v180h-89v150z" />
    <glyph glyph-name="u" unicode="u" 
d="M639 521v-521h-238v90h-2q-21 -52 -67 -77t-103 -25q-183 0 -183 171v362h252v-300q0 -16 1 -24.5t4.5 -21.5t13 -19t25.5 -6q21 0 31.5 13t12 25t1.5 33v300h252z" />
    <glyph glyph-name="v" unicode="v" horiz-adv-x="630" 
d="M387 521h246l-158 -522h-323l-155 522h258l65 -342h2z" />
    <glyph glyph-name="w" unicode="w" horiz-adv-x="1000" 
d="M241 521l60 -341h2l54 341h303l58 -341h2l56 341h230l-127 -521h-314l-62 353h-2l-64 -353h-316l-127 521h247z" />
    <glyph glyph-name="x" unicode="x" horiz-adv-x="667" 
d="M0 521h265l70 -156l70 156h247l-145 -237l172 -284h-267l-82 168l-85 -168h-257l171 280z" />
    <glyph glyph-name="y" unicode="y" horiz-adv-x="611" 
d="M-13 521h261l65 -320h2l62 320h242l-138 -436q-13 -44 -21.5 -69.5t-24 -62.5t-29.5 -58.5t-36 -46.5t-47.5 -38.5t-60 -22.5t-75.5 -9q-55 0 -165 18v148q33 -10 75 -10q36 0 57.5 14t21.5 35q0 17 -9.5 46t-25 68t-21.5 59z" />
    <glyph glyph-name="z" unicode="z" horiz-adv-x="611" 
d="M43 371v150h527v-209l-249 -160v-2h256v-150h-543v214l263 155v2h-254z" />
    <glyph glyph-name="braceleft" unicode="{" horiz-adv-x="370" 
d="M354 756v-110h-15q-19 0 -31.5 -5.5t-18 -15.5t-7 -18.5t-1.5 -21.5v-176q-1 -96 -132 -100v-2q131 -4 132 -100v-176q0 -13 1.5 -21.5t7 -18.5t18 -15.5t31.5 -5.5h15v-110h-132q-47 0 -90 36.5t-43 101.5v188q0 64 -73 64v116q73 0 73 64v188q0 65 43 101.5t90 36.5
h132z" />
    <glyph glyph-name="bar" unicode="|" horiz-adv-x="222" 
d="M27 750h168v-1000h-168v1000z" />
    <glyph glyph-name="braceright" unicode="}" horiz-adv-x="370" 
d="M16 646v110h132q47 0 90 -36.5t43 -101.5v-188q0 -64 73 -64v-116q-73 0 -73 -64v-188q0 -65 -43 -101.5t-90 -36.5h-132v110h15q19 0 31.5 5.5t18 15.5t7 18.5t1.5 21.5v176q1 96 132 100v2q-131 4 -132 100v176q0 13 -1.5 21.5t-7 18.5t-18 15.5t-31.5 5.5h-15z" />
    <glyph glyph-name="asciitilde" unicode="~" horiz-adv-x="600" 
d="M495 365l36 -132q-17 -24 -24.5 -33.5t-24.5 -27t-35.5 -24.5t-40.5 -7q-38 0 -103.5 34t-113.5 34q-55 0 -84 -68l-36 129q46 95 125 95q40 0 115 -34t98 -34q46 0 88 68z" />
    <glyph glyph-name="uni00A0" unicode="&#xa0;" horiz-adv-x="370" 
 />
    <glyph glyph-name="exclamdown" unicode="&#xa1;" horiz-adv-x="426" 
d="M118 263h190l39 -440h-268zM104 521h218v-186h-218v186z" />
    <glyph glyph-name="cent" unicode="&#xa2;" horiz-adv-x="574" 
d="M281 -120v128q-124 15 -188.5 86.5t-64.5 192.5q0 116 64 181.5t189 79.5v123h120v-120q78 -5 133 -21v-155q-60 27 -113 27q-58 0 -91.5 -30.5t-33.5 -88.5q0 -61 34 -95.5t91 -34.5q64 0 117 32v-156q-65 -21 -137 -24v-125h-120z" />
    <glyph glyph-name="sterling" unicode="&#xa3;" horiz-adv-x="648" 
d="M368 424h153v-144h-153v-124h238v-156h-564v156h84v124h-84v144h84v50q0 65 24 112.5t65.5 73.5t90.5 38t107 12q91 0 192 -22v-154q-76 20 -128 20q-102 0 -109 -93v-37z" />
    <glyph glyph-name="currency" unicode="&#xa4;" horiz-adv-x="600" 
d="M498 609l61 -61l-52 -52q48 -65 48 -146q0 -82 -49 -145l53 -53l-61 -61l-53 53q-64 -47 -145 -47t-146 46l-52 -52l-61 61l52 52q-48 65 -48 146t48 146l-52 52l61 61l52 -52q67 46 146 46q80 0 146 -46zM405 350q0 50 -29.5 82.5t-75.5 32.5t-75.5 -32.5t-29.5 -82.5
t29.5 -82.5t75.5 -32.5t75.5 32.5t29.5 82.5z" />
    <glyph glyph-name="yen" unicode="&#xa5;" horiz-adv-x="740" 
d="M12 698h253l104 -272h2l104 272h253l-171 -332h96v-104h-150l-15 -28v-36h165v-104h-165v-94h-252v94h-159v104h159v36l-14 28h-145v104h96z" />
    <glyph glyph-name="brokenbar" unicode="&#xa6;" horiz-adv-x="222" 
d="M27 675h168v-350h-168v350zM27 175h168v-350h-168v350z" />
    <glyph glyph-name="section" unicode="&#xa7;" horiz-adv-x="630" 
d="M519 688v-144q-79 22 -150 22q-20 0 -29.5 -0.5t-24.5 -3.5t-22 -11.5t-7 -22.5q0 -17 23.5 -30t58.5 -22t75.5 -24.5t75.5 -35t58.5 -56.5t23.5 -86q0 -85 -91 -136q69 -55 69 -125q0 -45 -18.5 -79t-46 -53.5t-66.5 -31.5t-74 -16t-74 -4q-132 0 -230 26v147
q82 -29 169 -29q24 0 37.5 0.5t33.5 4t29.5 12t9.5 22.5q0 17 -23.5 30.5t-59.5 23t-77 26t-77 37t-59.5 58t-23.5 87.5q0 48 28 85t74 55q-75 38 -75 121q0 175 266 175q102 0 197 -22zM387 192q28 32 28 55q0 16 -11 30.5t-32.5 26t-39.5 19t-45 17.5t-38 14
q-34 -22 -34 -56q0 -27 31 -47.5t82 -37.5t59 -21z" />
    <glyph glyph-name="dieresis" unicode="&#xa8;" horiz-adv-x="278" 
d="M-83 750h180v-156h-180v156zM181 750h180v-156h-180v156z" />
    <glyph glyph-name="copyright" unicode="&#xa9;" horiz-adv-x="800" 
d="M474 311h106q-11 -78 -59 -120.5t-111 -42.5q-84 0 -138.5 60t-54.5 150q0 78 53.5 134.5t137.5 56.5q64 0 110 -40.5t58 -116.5h-102q-16 47 -55 47q-37 0 -56.5 -24.5t-19.5 -64.5t20.5 -66t53.5 -26q17 0 35.5 14.5t21.5 38.5zM400 108q98 0 158.5 68.5t60.5 172.5
t-60.5 172.5t-158.5 68.5q-101 0 -160 -68t-59 -173t59 -173t160 -68zM400 -12q-149 0 -255 106t-106 255t106 255t255 106t255 -106t106 -255t-106 -255t-255 -106z" />
    <glyph glyph-name="ordfeminine" unicode="&#xaa;" horiz-adv-x="421" 
d="M56 602v87q53 21 151 21q203 0 203 -140v-182h-156v36h-2q-37 -44 -120 -44q-51 0 -86 25.5t-35 70.5q0 57 50.5 81.5t120.5 24.5q30 0 72 -3q-1 47 -85 47q-62 0 -113 -24zM254 511v11h-15q-72 0 -72 -33t38 -33q23 0 36 17.5t13 37.5z" />
    <glyph glyph-name="guillemotleft" unicode="&#xab;" horiz-adv-x="648" 
d="M139 486h192l-90 -216l90 -216h-192l-114 216zM410 486h192l-90 -216l90 -216h-192l-114 216z" />
    <glyph glyph-name="logicalnot" unicode="&#xac;" horiz-adv-x="600" 
d="M390 121v172h-342v162h504v-334h-162z" />
    <glyph glyph-name="uni00AD" unicode="&#xad;" horiz-adv-x="370" 
d="M45 182v174h280v-174h-280z" />
    <glyph glyph-name="registered" unicode="&#xae;" horiz-adv-x="800" 
d="M400 -12q-149 0 -255 106t-106 255t106 255t255 106t255 -106t106 -255t-106 -255t-255 -106zM400 108q98 0 158.5 68.5t60.5 172.5t-60.5 172.5t-158.5 68.5q-101 0 -160 -68t-59 -173t59 -173t160 -68zM364 282v-113h-101v362h135q80 0 119 -26.5t39 -92.5
q0 -103 -91 -108l79 -135h-113l-65 113h-2zM364 372h50q47 0 47 36q0 14 -11 22t-23 9.5t-33 1.5h-30v-69z" />
    <glyph glyph-name="macron" unicode="&#xaf;" horiz-adv-x="278" 
d="M346 625h-414v104h414v-104z" />
    <glyph glyph-name="degree" unicode="&#xb0;" horiz-adv-x="400" 
d="M40 550q0 66 47 113t113 47t113 -47t47 -113t-47 -113t-113 -47t-113 47t-47 113zM130 550q0 -29 20.5 -49.5t49.5 -20.5t49.5 20.5t20.5 49.5t-20.5 49.5t-49.5 20.5t-49.5 -20.5t-20.5 -49.5z" />
    <glyph glyph-name="plusminus" unicode="&#xb1;" horiz-adv-x="600" 
d="M219 423v81h162v-81h171v-162h-171v-81h-162v81h-171v162h171zM48 0v162h504v-162h-504z" />
    <glyph glyph-name="twosuperior" unicode="&#xb2;" horiz-adv-x="385" 
d="M371 402v-120h-361v123q3 1 16 7t23 10.5t26.5 12.5t29.5 15t28.5 16t26.5 17t21 17t15 17.5t5 16.5q0 28 -23.5 42t-54.5 14q-51 0 -102 -16v123q78 13 160 13q83 0 141.5 -32.5t58.5 -108.5q0 -31 -16.5 -58t-46.5 -48.5t-50 -33t-49 -25.5v-2h152z" />
    <glyph glyph-name="threesuperior" unicode="&#xb3;" horiz-adv-x="385" 
d="M18 591v106q57 13 165 13q190 0 190 -118q0 -73 -90 -95v-2q96 -20 96 -95q0 -46 -31.5 -75t-72 -39t-90.5 -10q-108 0 -173 17v103q54 -18 109 -18q72 0 72 32q0 33 -73 33q-24 0 -56 -5v97q26 -2 37 -2q86 0 86 40q0 35 -66 35q-48 0 -103 -17z" />
    <glyph glyph-name="acute" unicode="&#xb4;" horiz-adv-x="278" 
d="M124 750h237l-197 -156h-139z" />
    <glyph glyph-name="mu" unicode="&#xb5;" 
d="M639 521v-521h-238v90h-2q-10 -30 -37.5 -56t-61.5 -34v-222h-254v743h252v-300q0 -16 1 -24.5t4.5 -21.5t13 -19t25.5 -6q21 0 31.5 13t12 25t1.5 33v300h252z" />
    <glyph glyph-name="paragraph" unicode="&#xb6;" horiz-adv-x="620" 
d="M239 -159v508q-106 0 -163.5 45t-57.5 126q0 100 64.5 139t181.5 39h316v-857h-138v753h-65v-753h-138z" />
    <glyph glyph-name="periodcentered" unicode="&#xb7;" horiz-adv-x="370" 
d="M64 233q0 50 35.5 85.5t85.5 35.5t85.5 -35.5t35.5 -85.5t-35.5 -85.5t-85.5 -35.5t-85.5 35.5t-35.5 85.5z" />
    <glyph glyph-name="cedilla" unicode="&#xb8;" horiz-adv-x="278" 
d="M125 1h90l-41 -67q18 3 36 3q41 0 68 -20.5t27 -61.5q0 -46 -45 -69.5t-104 -23.5q-80 0 -143 28l27 62q60 -24 93 -24q17 0 34.5 7t17.5 18q0 13 -14 20.5t-31 7.5q-19 0 -37 -6l-33 36z" />
    <glyph glyph-name="onesuperior" unicode="&#xb9;" horiz-adv-x="338" 
d="M132 282v266l-100 -72l-50 121l171 107h159v-422h-180z" />
    <glyph glyph-name="ordmasculine" unicode="&#xba;" horiz-adv-x="445" 
d="M7 545q0 79 55.5 122t161.5 43q105 0 159.5 -43t54.5 -122q0 -80 -55 -122.5t-161 -42.5q-105 0 -160 43t-55 122zM187 545q0 -29 6.5 -45t28.5 -16q36 0 36 61q0 30 -7.5 45.5t-28.5 15.5q-22 0 -28.5 -15t-6.5 -46z" />
    <glyph glyph-name="guillemotright" unicode="&#xbb;" horiz-adv-x="648" 
d="M238 54h-192l90 216l-90 216h192l114 -216zM509 54h-192l90 216l-90 216h192l114 -216z" />
    <glyph glyph-name="onequarter" unicode="&#xbc;" horiz-adv-x="1111" 
d="M812 183v119l-110 -119h110zM980 185h75v-106h-75v-79h-168v79h-200v149l201 194h167v-237zM265 -31l452 760h122l-452 -760h-122zM200 282v266l-100 -72l-50 121l171 107h159v-422h-180z" />
    <glyph glyph-name="onehalf" unicode="&#xbd;" horiz-adv-x="1111" 
d="M246 -31l452 760h122l-452 -760h-122zM190 282v266l-100 -72l-50 121l171 107h159v-422h-180zM701 0v123q3 1 16 7t23 10.5t26.5 12.5t29.5 15t28.5 16t26.5 17t21 17t15 17.5t5 16.5q0 28 -23.5 42t-54.5 14q-51 0 -102 -16v123q78 13 160 13q83 0 141.5 -32.5
t58.5 -108.5q0 -31 -16.5 -58t-46.5 -48.5t-50 -33t-49 -25.5v-2h152v-120h-361z" />
    <glyph glyph-name="threequarters" unicode="&#xbe;" horiz-adv-x="1111" 
d="M990 423v-238h75v-104h-75v-81h-168v81h-200v147l201 195h167zM822 185v118l-110 -118h110zM256 -31l452 760h122l-452 -760h-122zM51 591v106q57 13 165 13q190 0 190 -118q0 -73 -90 -95v-2q96 -20 96 -95q0 -46 -31.5 -75t-72 -39t-90.5 -10q-108 0 -173 17v103
q54 -18 109 -18q72 0 72 32q0 33 -73 33q-24 0 -56 -5v97q26 -2 37 -2q86 0 86 40q0 35 -66 35q-48 0 -103 -17z" />
    <glyph glyph-name="questiondown" unicode="&#xbf;" horiz-adv-x="574" 
d="M227 262h200q-3 -56 -17.5 -93.5t-34 -54.5t-38 -28.5t-31.5 -25.5t-13 -35q0 -25 25.5 -33t73.5 -8q68 0 141 33v-170q-119 -37 -218 -37q-43 0 -85 7t-87.5 23.5t-73.5 52t-28 85.5q0 37 14.5 67.5t36.5 50t46.5 39.5t45.5 36t33.5 40t9.5 51zM218 521h218v-186h-218
v186z" />
    <glyph glyph-name="Agrave" unicode="&#xc0;" horiz-adv-x="833" 
d="M-15 0l245 698h369l249 -698h-281l-46 151h-226l-43 -151h-267zM409 548l-77 -229h155l-76 229h-2zM195 907h237l99 -156h-139z" />
    <glyph glyph-name="Aacute" unicode="&#xc1;" horiz-adv-x="833" 
d="M-15 0l245 698h369l249 -698h-281l-46 151h-226l-43 -151h-267zM409 548l-77 -229h155l-76 229h-2zM402 907h237l-197 -156h-139z" />
    <glyph glyph-name="Acircumflex" unicode="&#xc2;" horiz-adv-x="833" 
d="M-15 0l245 698h369l249 -698h-281l-46 151h-226l-43 -151h-267zM409 548l-77 -229h155l-76 229h-2zM318 907h199l114 -156h-145l-71 94l-66 -94h-146z" />
    <glyph glyph-name="Atilde" unicode="&#xc3;" horiz-adv-x="833" 
d="M-15 0l245 698h369l249 -698h-281l-46 151h-226l-43 -151h-267zM409 548l-77 -229h155l-76 229h-2zM292 751h-95q7 69 38 112.5t86 43.5q41 0 87 -14q77 -22 89 -22q36 0 45 36h95q-4 -66 -41 -111t-94 -45q-43 0 -97 20q-45 17 -69 17q-17 0 -30.5 -11.5t-13.5 -25.5z
" />
    <glyph glyph-name="Adieresis" unicode="&#xc4;" horiz-adv-x="833" 
d="M-15 0l245 698h369l249 -698h-281l-46 151h-226l-43 -151h-267zM409 548l-77 -229h155l-76 229h-2zM195 907h180v-156h-180v156zM459 907h180v-156h-180v156z" />
    <glyph glyph-name="Aring" unicode="&#xc5;" horiz-adv-x="833" 
d="M-15 0l245 698h369l249 -698h-281l-46 151h-226l-43 -151h-267zM409 548l-77 -229h155l-76 229h-2zM465 843q0 20 -14 34t-34 14q-21 0 -34.5 -14t-13.5 -34t13.5 -34t34.5 -14q20 0 34 14t14 34zM535 843q0 -49 -35 -83.5t-83 -34.5q-49 0 -83.5 34.5t-34.5 83.5
t34.5 83.5t83.5 34.5q48 0 83 -34.5t35 -83.5z" />
    <glyph glyph-name="AE" unicode="&#xc6;" horiz-adv-x="1074" 
d="M-15 0l247 698h803v-168h-388l32 -99h338v-168h-286l34 -95h277v-168h-481l-43 151h-225l-45 -151h-263zM409 542l-79 -223h156l-75 223h-2z" />
    <glyph glyph-name="Ccedilla" unicode="&#xc7;" horiz-adv-x="648" 
d="M629 201v-185q-74 -22 -156 -26l-34 -56q18 3 36 3q41 0 68 -20.5t27 -61.5q0 -46 -45 -69.5t-104 -23.5q-80 0 -143 28l27 62q60 -24 93 -24q17 0 34.5 7t17.5 18q0 13 -14 20.5t-31 7.5q-19 0 -37 -6l-33 36l49 80q-163 13 -264 107.5t-101 260.5q0 113 58.5 194
t151.5 119t208 38q68 0 190 -22v-184q-82 26 -134 26q-89 0 -144.5 -46t-55.5 -129q0 -87 52.5 -134t138.5 -47q67 0 145 27z" />
    <glyph glyph-name="Egrave" unicode="&#xc8;" 
d="M41 0v698h605v-168h-343v-99h328v-168h-328v-95h350v-168h-612zM121 907h237l99 -156h-139z" />
    <glyph glyph-name="Eacute" unicode="&#xc9;" 
d="M41 0v698h605v-168h-343v-99h328v-168h-328v-95h350v-168h-612zM328 907h237l-197 -156h-139z" />
    <glyph glyph-name="Ecircumflex" unicode="&#xca;" 
d="M41 0v698h605v-168h-343v-99h328v-168h-328v-95h350v-168h-612zM244 907h199l114 -156h-145l-71 94l-66 -94h-146z" />
    <glyph glyph-name="Edieresis" unicode="&#xcb;" 
d="M41 0v698h605v-168h-343v-99h328v-168h-328v-95h350v-168h-612zM121 907h180v-156h-180v156zM385 907h180v-156h-180v156z" />
    <glyph glyph-name="Igrave" unicode="&#xcc;" horiz-adv-x="370" 
d="M51 698h268v-698h-268v698zM-37 907h237l99 -156h-139z" />
    <glyph glyph-name="Iacute" unicode="&#xcd;" horiz-adv-x="370" 
d="M51 698h268v-698h-268v698zM170 907h237l-197 -156h-139z" />
    <glyph glyph-name="Icircumflex" unicode="&#xce;" horiz-adv-x="370" 
d="M51 698h268v-698h-268v698zM86 907h199l114 -156h-145l-71 94l-66 -94h-146z" />
    <glyph glyph-name="Idieresis" unicode="&#xcf;" horiz-adv-x="370" 
d="M51 698h268v-698h-268v698zM-37 907h180v-156h-180v156zM227 907h180v-156h-180v156z" />
    <glyph glyph-name="Eth" unicode="&#xd0;" horiz-adv-x="815" 
d="M50 698h393q80 0 138.5 -15.5t106 -53.5t72 -108.5t24.5 -173.5q0 -347 -352 -347h-382v305h-53v126h53v267zM318 536v-105h89v-126h-89v-131h67q69 0 94 43.5t25 136.5q0 95 -25.5 138.5t-94.5 43.5h-66z" />
    <glyph glyph-name="Ntilde" unicode="&#xd1;" horiz-adv-x="852" 
d="M45 0v698h401l129 -492h2v492h230v-698h-394l-136 506h-2v-506h-230zM301 751h-95q7 69 38 112.5t86 43.5q42 0 87 -14q77 -22 89 -22q36 0 45 36h95q-4 -66 -41 -111t-94 -45q-43 0 -97 20q-45 17 -69 17q-17 0 -30.5 -11.5t-13.5 -25.5z" />
    <glyph glyph-name="Ograve" unicode="&#xd2;" horiz-adv-x="815" 
d="M796 349q0 -176 -102.5 -268.5t-287.5 -92.5t-286 92t-101 269q0 174 101.5 267.5t285.5 93.5q185 0 287.5 -93.5t102.5 -267.5zM299 349q0 -193 107 -193q37 0 61 18t33.5 52.5t12 59t3.5 63.5q-3 193 -110 193t-107 -193zM186 907h237l99 -156h-139z" />
    <glyph glyph-name="Oacute" unicode="&#xd3;" horiz-adv-x="815" 
d="M796 349q0 -176 -102.5 -268.5t-287.5 -92.5t-286 92t-101 269q0 174 101.5 267.5t285.5 93.5q185 0 287.5 -93.5t102.5 -267.5zM299 349q0 -193 107 -193q37 0 61 18t33.5 52.5t12 59t3.5 63.5q-3 193 -110 193t-107 -193zM393 907h237l-197 -156h-139z" />
    <glyph glyph-name="Ocircumflex" unicode="&#xd4;" horiz-adv-x="815" 
d="M796 349q0 -176 -102.5 -268.5t-287.5 -92.5t-286 92t-101 269q0 174 101.5 267.5t285.5 93.5q185 0 287.5 -93.5t102.5 -267.5zM299 349q0 -193 107 -193q37 0 61 18t33.5 52.5t12 59t3.5 63.5q-3 193 -110 193t-107 -193zM309 907h199l114 -156h-145l-71 94l-66 -94
h-146z" />
    <glyph glyph-name="Otilde" unicode="&#xd5;" horiz-adv-x="815" 
d="M796 349q0 -176 -102.5 -268.5t-287.5 -92.5t-286 92t-101 269q0 174 101.5 267.5t285.5 93.5q185 0 287.5 -93.5t102.5 -267.5zM299 349q0 -193 107 -193q37 0 61 18t33.5 52.5t12 59t3.5 63.5q-3 193 -110 193t-107 -193zM283 751h-95q7 69 38 112.5t86 43.5
q42 0 87 -14q77 -22 89 -22q36 0 45 36h95q-4 -66 -41 -111t-94 -45q-43 0 -97 20q-45 17 -69 17q-17 0 -30.5 -11.5t-13.5 -25.5z" />
    <glyph glyph-name="Odieresis" unicode="&#xd6;" horiz-adv-x="815" 
d="M796 349q0 -176 -102.5 -268.5t-287.5 -92.5t-286 92t-101 269q0 174 101.5 267.5t285.5 93.5q185 0 287.5 -93.5t102.5 -267.5zM299 349q0 -193 107 -193q37 0 61 18t33.5 52.5t12 59t3.5 63.5q-3 193 -110 193t-107 -193zM186 907h180v-156h-180v156zM450 907h180v-156
h-180v156z" />
    <glyph glyph-name="multiply" unicode="&#xd7;" horiz-adv-x="600" 
d="M412 252l139 -138l-111 -114l-140 141l-139 -141l-111 113l139 139l-140 140l112 112l140 -140l139 140l111 -112z" />
    <glyph glyph-name="Oslash" unicode="&#xd8;" horiz-adv-x="815" 
d="M301 309l169 208q-25 25 -64 25q-107 0 -107 -193q0 -25 2 -40zM514 392l-171 -210q23 -26 63 -26q37 0 61 18t33.5 52.5t12 59t3.5 63.5q0 11 -2 43zM700 800l88 -70l-93 -115q101 -95 101 -266q0 -176 -102.5 -268.5t-287.5 -92.5q-113 0 -193 34l-101 -124l-88 70
l93 115q-98 93 -98 266q0 174 101.5 267.5t285.5 93.5q112 0 193 -34z" />
    <glyph glyph-name="Ugrave" unicode="&#xd9;" horiz-adv-x="796" 
d="M317 698v-414q0 -116 83 -116q49 0 67 29t18 86v415h262v-410q0 -161 -90.5 -230.5t-259.5 -69.5q-75 0 -137 16t-110 49.5t-74.5 89.5t-26.5 131v424h268zM176 907h237l99 -156h-139z" />
    <glyph glyph-name="Uacute" unicode="&#xda;" horiz-adv-x="796" 
d="M317 698v-414q0 -116 83 -116q49 0 67 29t18 86v415h262v-410q0 -161 -90.5 -230.5t-259.5 -69.5q-75 0 -137 16t-110 49.5t-74.5 89.5t-26.5 131v424h268zM383 907h237l-197 -156h-139z" />
    <glyph glyph-name="Ucircumflex" unicode="&#xdb;" horiz-adv-x="796" 
d="M317 698v-414q0 -116 83 -116q49 0 67 29t18 86v415h262v-410q0 -161 -90.5 -230.5t-259.5 -69.5q-75 0 -137 16t-110 49.5t-74.5 89.5t-26.5 131v424h268zM299 907h199l114 -156h-145l-71 94l-66 -94h-146z" />
    <glyph glyph-name="Udieresis" unicode="&#xdc;" horiz-adv-x="796" 
d="M317 698v-414q0 -116 83 -116q49 0 67 29t18 86v415h262v-410q0 -161 -90.5 -230.5t-259.5 -69.5q-75 0 -137 16t-110 49.5t-74.5 89.5t-26.5 131v424h268zM176 907h180v-156h-180v156zM440 907h180v-156h-180v156z" />
    <glyph glyph-name="Yacute" unicode="&#xdd;" horiz-adv-x="759" 
d="M774 698l-262 -484v-214h-268v214l-259 484h291l109 -292h2l110 292h277zM365 907h237l-197 -156h-139z" />
    <glyph glyph-name="Thorn" unicode="&#xde;" horiz-adv-x="796" 
d="M50 0v698h268v-64h193q35 0 68.5 -6.5t68.5 -24t60.5 -43.5t42 -69t16.5 -97q0 -129 -72 -193t-185 -64h-192v-137h-268zM311 472v-173h59q37 0 63 5.5t46 26.5t20 58q0 50 -35 66.5t-95 16.5h-58z" />
    <glyph glyph-name="germandbls" unicode="&#xdf;" horiz-adv-x="741" 
d="M296 0h-252v504q0 52 18 97t54 82t98.5 58t144.5 21q325 0 325 -211q0 -68 -32 -109t-101 -59v-2q79 -18 125 -63.5t46 -116.5q0 -105 -65.5 -156t-169.5 -51q-49 0 -136 19v136q18 -11 54 -11q31 0 53 23.5t22 68.5q0 71 -129 71v138q47 2 69 23.5t22 69.5q0 86 -73 86
q-26 0 -42 -12t-22 -35.5t-7.5 -39.5t-1.5 -43v-488z" />
    <glyph glyph-name="agrave" unicode="&#xe0;" horiz-adv-x="648" 
d="M75 357v146q107 30 218 30q49 0 89 -4t85 -17.5t75 -36t50 -63t20 -95.5v-317h-234v75h-2q-52 -87 -170 -87q-80 0 -135.5 38t-55.5 115q0 192 269 192q18 0 98 -7q-1 45 -37 60t-96 15q-86 0 -174 -44zM382 213v16h-25q-32 0 -53.5 -3t-40 -17t-18.5 -39q0 -50 59 -50
q37 0 57.5 28t20.5 65zM102 750h237l99 -156h-139z" />
    <glyph glyph-name="aacute" unicode="&#xe1;" horiz-adv-x="648" 
d="M75 357v146q107 30 218 30q49 0 89 -4t85 -17.5t75 -36t50 -63t20 -95.5v-317h-234v75h-2q-52 -87 -170 -87q-80 0 -135.5 38t-55.5 115q0 192 269 192q18 0 98 -7q-1 45 -37 60t-96 15q-86 0 -174 -44zM382 213v16h-25q-32 0 -53.5 -3t-40 -17t-18.5 -39q0 -50 59 -50
q37 0 57.5 28t20.5 65zM309 750h237l-197 -156h-139z" />
    <glyph glyph-name="acircumflex" unicode="&#xe2;" horiz-adv-x="648" 
d="M75 357v146q107 30 218 30q49 0 89 -4t85 -17.5t75 -36t50 -63t20 -95.5v-317h-234v75h-2q-52 -87 -170 -87q-80 0 -135.5 38t-55.5 115q0 192 269 192q18 0 98 -7q-1 45 -37 60t-96 15q-86 0 -174 -44zM382 213v16h-25q-32 0 -53.5 -3t-40 -17t-18.5 -39q0 -50 59 -50
q37 0 57.5 28t20.5 65zM225 750h199l114 -156h-145l-71 94l-66 -94h-146z" />
    <glyph glyph-name="atilde" unicode="&#xe3;" horiz-adv-x="648" 
d="M75 357v146q107 30 218 30q49 0 89 -4t85 -17.5t75 -36t50 -63t20 -95.5v-317h-234v75h-2q-52 -87 -170 -87q-80 0 -135.5 38t-55.5 115q0 192 269 192q18 0 98 -7q-1 45 -37 60t-96 15q-86 0 -174 -44zM382 213v16h-25q-32 0 -53.5 -3t-40 -17t-18.5 -39q0 -50 59 -50
q37 0 57.5 28t20.5 65zM199 594h-95q7 69 38 112.5t86 43.5q42 0 87 -14q77 -22 89 -22q36 0 45 36h95q-4 -66 -41 -111t-94 -45q-43 0 -97 20q-45 17 -69 17q-17 0 -30.5 -11.5t-13.5 -25.5z" />
    <glyph glyph-name="adieresis" unicode="&#xe4;" horiz-adv-x="648" 
d="M75 357v146q107 30 218 30q49 0 89 -4t85 -17.5t75 -36t50 -63t20 -95.5v-317h-234v75h-2q-52 -87 -170 -87q-80 0 -135.5 38t-55.5 115q0 192 269 192q18 0 98 -7q-1 45 -37 60t-96 15q-86 0 -174 -44zM382 213v16h-25q-32 0 -53.5 -3t-40 -17t-18.5 -39q0 -50 59 -50
q37 0 57.5 28t20.5 65zM102 750h180v-156h-180v156zM366 750h180v-156h-180v156z" />
    <glyph glyph-name="aring" unicode="&#xe5;" horiz-adv-x="648" 
d="M75 357v146q107 30 218 30q49 0 89 -4t85 -17.5t75 -36t50 -63t20 -95.5v-317h-234v75h-2q-52 -87 -170 -87q-80 0 -135.5 38t-55.5 115q0 192 269 192q18 0 98 -7q-1 45 -37 60t-96 15q-86 0 -174 -44zM382 213v16h-25q-32 0 -53.5 -3t-40 -17t-18.5 -39q0 -50 59 -50
q37 0 57.5 28t20.5 65zM352 686q0 20 -14 34t-34 14q-21 0 -34.5 -14t-13.5 -34t13.5 -34t34.5 -14q20 0 34 14t14 34zM422 686q0 -49 -35 -83.5t-83 -34.5q-49 0 -83.5 34.5t-34.5 83.5t34.5 83.5t83.5 34.5q48 0 83 -34.5t35 -83.5z" />
    <glyph glyph-name="ae" unicode="&#xe6;" horiz-adv-x="963" 
d="M377 211v20h-25q-110 0 -110 -58q0 -26 15.5 -40.5t43.5 -14.5q38 0 56 26.5t20 66.5zM601 310h126l-1.5 28.5t-4.5 26t-10.5 25.5t-19 16t-29.5 7q-63 0 -61 -103zM77 357v146q61 17 105 23.5t116 6.5q137 0 188 -71q42 37 81 54t110 17q127 0 197.5 -73.5t70.5 -208.5
v-51h-344q1 -80 133 -80q99 0 179 33v-135q-131 -30 -218 -30q-91 0 -145 16t-109 72q-67 -88 -223 -88q-87 0 -143.5 38t-56.5 115q0 57 23 97t62.5 59.5t79 27.5t84.5 8q23 0 57.5 -2t46.5 -2q-7 72 -120 72q-82 0 -174 -44z" />
    <glyph glyph-name="ccedilla" unicode="&#xe7;" horiz-adv-x="556" 
d="M529 169v-155q-69 -22 -152 -25l-34 -55q18 3 36 3q41 0 68 -20.5t27 -61.5q0 -46 -45 -69.5t-104 -23.5q-80 0 -143 28l27 62q60 -24 93 -24q17 0 34.5 7t17.5 18q0 13 -14 20.5t-31 7.5q-19 0 -37 -6l-33 36l49 81q-132 11 -200.5 82.5t-68.5 195.5q0 131 82 197
t241 66q107 0 183 -22v-154q-58 26 -113 26q-58 0 -91.5 -30t-33.5 -87q0 -60 34 -94t91 -34q65 0 117 31z" />
    <glyph glyph-name="egrave" unicode="&#xe8;" horiz-adv-x="630" 
d="M264 310h131q0 103 -63 103q-39 0 -55 -32.5t-13 -70.5zM613 200h-348q5 -80 139 -80q108 0 171 33v-135q-96 -30 -235 -30q-157 0 -240 73t-83 209q0 131 82 197t241 66q273 0 273 -302v-31zM93 750h237l99 -156h-139z" />
    <glyph glyph-name="eacute" unicode="&#xe9;" horiz-adv-x="630" 
d="M264 310h131q0 103 -63 103q-39 0 -55 -32.5t-13 -70.5zM613 200h-348q5 -80 139 -80q108 0 171 33v-135q-96 -30 -235 -30q-157 0 -240 73t-83 209q0 131 82 197t241 66q273 0 273 -302v-31zM300 750h237l-197 -156h-139z" />
    <glyph glyph-name="ecircumflex" unicode="&#xea;" horiz-adv-x="630" 
d="M264 310h131q0 103 -63 103q-39 0 -55 -32.5t-13 -70.5zM613 200h-348q5 -80 139 -80q108 0 171 33v-135q-96 -30 -235 -30q-157 0 -240 73t-83 209q0 131 82 197t241 66q273 0 273 -302v-31zM216 750h199l114 -156h-145l-71 94l-66 -94h-146z" />
    <glyph glyph-name="edieresis" unicode="&#xeb;" horiz-adv-x="630" 
d="M264 310h131q0 103 -63 103q-39 0 -55 -32.5t-13 -70.5zM613 200h-348q5 -80 139 -80q108 0 171 33v-135q-96 -30 -235 -30q-157 0 -240 73t-83 209q0 131 82 197t241 66q273 0 273 -302v-31zM93 750h180v-156h-180v156zM357 750h180v-156h-180v156z" />
    <glyph glyph-name="igrave" unicode="&#xec;" horiz-adv-x="352" 
d="M50 0v521h252v-521h-252zM-46 750h237l99 -156h-139z" />
    <glyph glyph-name="iacute" unicode="&#xed;" horiz-adv-x="352" 
d="M50 0v521h252v-521h-252zM161 750h237l-197 -156h-139z" />
    <glyph glyph-name="icircumflex" unicode="&#xee;" horiz-adv-x="352" 
d="M50 0v521h252v-521h-252zM77 750h199l114 -156h-145l-71 94l-66 -94h-146z" />
    <glyph glyph-name="idieresis" unicode="&#xef;" horiz-adv-x="352" 
d="M50 0v521h252v-521h-252zM-46 750h180v-156h-180v156zM218 750h180v-156h-180v156z" />
    <glyph glyph-name="eth" unicode="&#xf0;" 
d="M287 254q0 -122 53 -122q20 0 32.5 10t17.5 30t6.5 37.5t1.5 46.5q0 26 -1.5 43t-6.5 36.5t-16.5 29.5t-30.5 10q-56 0 -56 -121zM83 661l104 109q62 -11 135 -40l92 62l76 -56l-75 -51q251 -136 251 -408q0 -134 -87.5 -211.5t-238.5 -77.5q-321 0 -321 261
q0 106 69 182t171 76q63 0 104 -17t75 -60h2q-32 82 -164 162l-86 -57l-70 59l63 42q-53 18 -100 25z" />
    <glyph glyph-name="ntilde" unicode="&#xf1;" 
d="M46 0v521h238v-90h2q21 52 67 77t103 25q183 0 183 -171v-362h-252v300q0 16 -1 24.5t-4.5 21.5t-13 19t-25.5 6q-21 0 -31.5 -13t-12 -25t-1.5 -33v-300h-252zM218 594h-95q7 69 38 112.5t86 43.5q41 0 87 -14q77 -22 89 -22q36 0 45 36h95q-4 -66 -41 -111t-94 -45
q-43 0 -97 20q-45 17 -69 17q-17 0 -30.5 -11.5t-13.5 -25.5z" />
    <glyph glyph-name="ograve" unicode="&#xf2;" 
d="M19 270q0 131 82 197t241 66t241.5 -66.5t82.5 -196.5q0 -136 -83.5 -209t-240.5 -73t-240 73t-83 209zM287 270q0 -66 10.5 -99t44.5 -33t45 33t11 99q0 55 -11 84t-45 29t-44.5 -29t-10.5 -84zM121 750h237l99 -156h-139z" />
    <glyph glyph-name="oacute" unicode="&#xf3;" 
d="M19 270q0 131 82 197t241 66t241.5 -66.5t82.5 -196.5q0 -136 -83.5 -209t-240.5 -73t-240 73t-83 209zM287 270q0 -66 10.5 -99t44.5 -33t45 33t11 99q0 55 -11 84t-45 29t-44.5 -29t-10.5 -84zM328 750h237l-197 -156h-139z" />
    <glyph glyph-name="ocircumflex" unicode="&#xf4;" 
d="M19 270q0 131 82 197t241 66t241.5 -66.5t82.5 -196.5q0 -136 -83.5 -209t-240.5 -73t-240 73t-83 209zM287 270q0 -66 10.5 -99t44.5 -33t45 33t11 99q0 55 -11 84t-45 29t-44.5 -29t-10.5 -84zM244 750h199l114 -156h-145l-71 94l-66 -94h-146z" />
    <glyph glyph-name="otilde" unicode="&#xf5;" 
d="M19 270q0 131 82 197t241 66t241.5 -66.5t82.5 -196.5q0 -136 -83.5 -209t-240.5 -73t-240 73t-83 209zM287 270q0 -66 10.5 -99t44.5 -33t45 33t11 99q0 55 -11 84t-45 29t-44.5 -29t-10.5 -84zM218 594h-95q7 69 38 112.5t86 43.5q41 0 87 -14q77 -22 89 -22
q36 0 45 36h95q-4 -66 -41 -111t-94 -45q-43 0 -97 20q-45 17 -69 17q-17 0 -30.5 -11.5t-13.5 -25.5z" />
    <glyph glyph-name="odieresis" unicode="&#xf6;" 
d="M19 270q0 131 82 197t241 66t241.5 -66.5t82.5 -196.5q0 -136 -83.5 -209t-240.5 -73t-240 73t-83 209zM287 270q0 -66 10.5 -99t44.5 -33t45 33t11 99q0 55 -11 84t-45 29t-44.5 -29t-10.5 -84zM121 750h180v-156h-180v156zM385 750h180v-156h-180v156z" />
    <glyph glyph-name="divide" unicode="&#xf7;" horiz-adv-x="600" 
d="M552 171h-504v162h504v-162zM202 460q0 41 29 70t70 29t70 -29t29 -70t-29 -70t-70 -29t-70 29t-29 70zM202 44q0 41 29 70t70 29t70 -29t29 -70t-29 -70t-70 -29t-70 29t-29 70z" />
    <glyph glyph-name="oslash" unicode="&#xf8;" 
d="M283 247l101 135q-15 13 -39 13q-40 0 -52 -34.5t-12 -108.5v-5h2zM402 275l-99 -135q12 -14 37 -14q21 0 34.5 10t19.5 32t8 44t2 58v5h-2zM582 638l72 -58l-83 -105q95 -66 95 -205q0 -135 -83.5 -208.5t-240.5 -73.5q-79 0 -144 20l-98 -124l-70 58l86 107
q-97 74 -97 221q0 130 82 196.5t241 66.5q80 0 143 -18z" />
    <glyph glyph-name="ugrave" unicode="&#xf9;" 
d="M639 521v-521h-238v90h-2q-21 -52 -67 -77t-103 -25q-183 0 -183 171v362h252v-300q0 -16 1 -24.5t4.5 -21.5t13 -19t25.5 -6q21 0 31.5 13t12 25t1.5 33v300h252zM121 750h237l99 -156h-139z" />
    <glyph glyph-name="uacute" unicode="&#xfa;" 
d="M639 521v-521h-238v90h-2q-21 -52 -67 -77t-103 -25q-183 0 -183 171v362h252v-300q0 -16 1 -24.5t4.5 -21.5t13 -19t25.5 -6q21 0 31.5 13t12 25t1.5 33v300h252zM328 750h237l-197 -156h-139z" />
    <glyph glyph-name="ucircumflex" unicode="&#xfb;" 
d="M639 521v-521h-238v90h-2q-21 -52 -67 -77t-103 -25q-183 0 -183 171v362h252v-300q0 -16 1 -24.5t4.5 -21.5t13 -19t25.5 -6q21 0 31.5 13t12 25t1.5 33v300h252zM244 750h199l114 -156h-145l-71 94l-66 -94h-146z" />
    <glyph glyph-name="udieresis" unicode="&#xfc;" 
d="M639 521v-521h-238v90h-2q-21 -52 -67 -77t-103 -25q-183 0 -183 171v362h252v-300q0 -16 1 -24.5t4.5 -21.5t13 -19t25.5 -6q21 0 31.5 13t12 25t1.5 33v300h252zM121 750h180v-156h-180v156zM385 750h180v-156h-180v156z" />
    <glyph glyph-name="yacute" unicode="&#xfd;" horiz-adv-x="611" 
d="M-13 521h261l65 -320h2l62 320h242l-138 -436q-13 -44 -21.5 -69.5t-24 -62.5t-29.5 -58.5t-36 -46.5t-47.5 -38.5t-60 -22.5t-75.5 -9q-55 0 -165 18v148q33 -10 75 -10q36 0 57.5 14t21.5 35q0 17 -9.5 46t-25 68t-21.5 59zM291 750h237l-197 -156h-139z" />
    <glyph glyph-name="thorn" unicode="&#xfe;" horiz-adv-x="704" 
d="M295 258q0 -54 13 -84t51 -30q62 0 62 108q0 113 -64 113q-62 0 -62 -107zM50 -210v960h252v-292h2q44 75 150 75q61 0 106 -22.5t71.5 -62t39 -88.5t12.5 -108q0 -115 -55.5 -189.5t-166.5 -74.5q-108 0 -157 79h-2v-277h-252z" />
    <glyph glyph-name="ydieresis" unicode="&#xff;" horiz-adv-x="611" 
d="M-13 521h261l65 -320h2l62 320h242l-138 -436q-13 -44 -21.5 -69.5t-24 -62.5t-29.5 -58.5t-36 -46.5t-47.5 -38.5t-60 -22.5t-75.5 -9q-55 0 -165 18v148q33 -10 75 -10q36 0 57.5 14t21.5 35q0 17 -9.5 46t-25 68t-21.5 59zM84 750h180v-156h-180v156zM348 750h180
v-156h-180v156z" />
    <glyph glyph-name="dotlessi" unicode="&#x131;" horiz-adv-x="352" 
d="M50 0v521h252v-521h-252z" />
    <glyph glyph-name="Lslash" unicode="&#x141;" horiz-adv-x="667" 
d="M-13 332l63 34v332h268v-187l153 83v-125l-153 -83v-180h329v-206h-597v241l-63 -34v125z" />
    <glyph glyph-name="lslash" unicode="&#x142;" horiz-adv-x="352" 
d="M50 750h252v-218l50 27v-120l-50 -27v-412h-252v276l-50 -31v120l50 31v354z" />
    <glyph glyph-name="OE" unicode="&#x152;" horiz-adv-x="1074" 
d="M1048 0h-651q-183 0 -277 82t-94 263q0 196 93.5 275.5t289.5 77.5h632v-168h-293v-99h276v-168h-276v-95h300v-168zM486 168v362h-51q-39 0 -62 -6.5t-41 -26.5t-25 -58t-7 -101q0 -94 29.5 -132t108.5 -38h48z" />
    <glyph glyph-name="oe" unicode="&#x153;" horiz-adv-x="1000" 
d="M313 533q122 0 197 -70q48 40 87 55t103 15q278 0 278 -282v-51h-344q1 -80 133 -80q99 0 179 33v-135q-131 -30 -218 -30q-82 0 -127.5 14t-87.5 56q-62 -70 -203 -70q-132 0 -211.5 71t-79.5 211q0 129 79.5 196t214.5 67zM287 270q0 -66 10.5 -99t44.5 -33t45 33
t11 99q0 55 -11 84t-45 29t-44.5 -29t-10.5 -84zM634 310h126l-1.5 28.5t-4.5 26t-10.5 25.5t-19 16t-29.5 7q-61 0 -61 -103z" />
    <glyph glyph-name="Scaron" unicode="&#x160;" 
d="M615 686v-179q-100 35 -207 35q-115 0 -115 -46q0 -21 27 -33.5t68 -18t88.5 -19t88.5 -33t68 -63.5t27 -107q0 -67 -30.5 -115t-82.5 -72.5t-107.5 -35.5t-119.5 -11q-145 0 -288 33v181q110 -46 240 -46q120 0 120 48q0 19 -20 30.5t-52.5 19t-72 15t-78.5 21.5
t-71.5 36t-52.5 62.5t-20 95.5q0 226 359 226q114 0 231 -24zM129 927h145l72 -94l65 94h146l-115 -156h-199z" />
    <glyph glyph-name="scaron" unicode="&#x161;" horiz-adv-x="556" 
d="M32 18v149q78 -47 185 -47q92 0 92 34q0 17 -30 26t-73 16t-86 20.5t-73 49t-30 91.5q0 53 27 90t74 54.5t92.5 24.5t99.5 7q83 0 188 -22v-140q-88 30 -164 30q-87 0 -87 -36q0 -14 30 -21t73 -13t86 -18.5t73 -46.5t30 -89q0 -53 -27.5 -92t-73 -59t-92.5 -29t-96 -9
q-100 0 -218 30zM64 750h145l72 -94l65 94h146l-115 -156h-199z" />
    <glyph glyph-name="Ydieresis" unicode="&#x178;" horiz-adv-x="759" 
d="M774 698l-262 -484v-214h-268v214l-259 484h291l109 -292h2l110 292h277zM158 907h180v-156h-180v156zM422 907h180v-156h-180v156z" />
    <glyph glyph-name="Zcaron" unicode="&#x17d;" 
d="M32 698h622v-212l-331 -300h342v-186h-645v212l342 306h-330v180zM129 927h145l72 -94l65 94h146l-115 -156h-199z" />
    <glyph glyph-name="zcaron" unicode="&#x17e;" horiz-adv-x="611" 
d="M43 371v150h527v-209l-249 -160v-2h256v-150h-543v214l263 155v2h-254zM92 750h145l72 -94l65 94h146l-115 -156h-199z" />
    <glyph glyph-name="florin" unicode="&#x192;" horiz-adv-x="593" 
d="M72 403h153q33 135 53 179q44 98 142 120q33 8 74 8q8 0 99 -11v-138q-22 5 -50 5q-36 0 -56 -26t-36 -86l-13 -51h126v-150h-161l-59 -211q-73 -264 -249 -264q-45 0 -95 12v139q16 -7 41 -7q27 0 49 32t43 114l50 185h-111v150z" />
    <glyph glyph-name="circumflex" unicode="&#x2c6;" horiz-adv-x="278" 
d="M40 750h199l114 -156h-145l-71 94l-66 -94h-146z" />
    <glyph glyph-name="caron" unicode="&#x2c7;" horiz-adv-x="278" 
d="M-75 750h145l72 -94l65 94h146l-115 -156h-199z" />
    <glyph glyph-name="uni02C9" unicode="&#x2c9;" horiz-adv-x="278" 
d="M346 625h-414v104h414v-104z" />
    <glyph glyph-name="breve" unicode="&#x2d8;" horiz-adv-x="278" 
d="M225 750h110q0 -77 -58 -119.5t-138 -42.5q-81 0 -138 42t-58 120h110q10 -27 31 -40q22 -12 55 -12q34 0 54 13q22 14 32 39z" />
    <glyph glyph-name="dotaccent" unicode="&#x2d9;" horiz-adv-x="278" 
d="M49 750h180v-156h-180v156z" />
    <glyph glyph-name="ring" unicode="&#x2da;" horiz-adv-x="278" 
d="M187 646q0 20 -14 34t-34 14q-21 0 -34.5 -14t-13.5 -34t13.5 -34t34.5 -14q20 0 34 14t14 34zM257 646q0 -49 -35 -83.5t-83 -34.5q-49 0 -83.5 34.5t-34.5 83.5t34.5 83.5t83.5 34.5q48 0 83 -34.5t35 -83.5z" />
    <glyph glyph-name="ogonek" unicode="&#x2db;" horiz-adv-x="278" 
d="M135 8h71q-5 -5 -18.5 -19t-20.5 -22t-16.5 -20t-14 -21.5t-4.5 -18.5q0 -22 13.5 -34.5t33.5 -12.5q26 0 52 31l38 -20q-23 -53 -57 -73t-83 -20q-117 0 -117 96q0 79 123 134z" />
    <glyph glyph-name="tilde" unicode="&#x2dc;" horiz-adv-x="278" 
d="M14 594h-95q7 69 38 112.5t86 43.5q41 0 87 -14q77 -22 89 -22q36 0 45 36h95q-4 -66 -41 -111t-94 -45q-43 0 -97 20q-45 17 -69 17q-17 0 -30.5 -11.5t-13.5 -25.5z" />
    <glyph glyph-name="hungarumlaut" unicode="&#x2dd;" horiz-adv-x="278" 
d="M-31 750h237l-197 -156h-139zM279 750h237l-197 -156h-139z" />
    <glyph glyph-name="uni03A9" unicode="&#x3a9;" horiz-adv-x="931" 
d="M210 150v5q-62 33 -108 95.5t-46 149.5q0 131 112 219t298 88q187 0 297.5 -87.5t110.5 -222.5q0 -84 -41 -139.5t-116 -102.5v-5h170v-150h-388v118q80 51 119 105t39 137q0 85 -52.5 142t-136.5 57q-82 0 -137.5 -54.5t-55.5 -147.5q0 -77 42.5 -140.5t117.5 -98.5
v-118h-392v150h167z" />
    <glyph glyph-name="uni03BC" unicode="&#x3bc;" 
d="M639 521v-521h-238v90h-2q-10 -30 -37.5 -56t-61.5 -34v-222h-254v743h252v-300q0 -16 1 -24.5t4.5 -21.5t13 -19t25.5 -6q21 0 31.5 13t12 25t1.5 33v300h252z" />
    <glyph glyph-name="pi" unicode="&#x3c0;" horiz-adv-x="784" 
d="M752 372h-73v-190q0 -125 13 -182h-211q-21 22 -21 164v208h-118q-1 -98 -18.5 -212.5t-42.5 -159.5h-212q25 76 43.5 186.5t15.5 185.5q-77 0 -110 -8l-19 120q37 40 225 40h547z" />
    <glyph glyph-name="endash" unicode="&#x2013;" horiz-adv-x="500" 
d="M0 194v150h500v-150h-500z" />
    <glyph glyph-name="emdash" unicode="&#x2014;" horiz-adv-x="1000" 
d="M0 194v150h1000v-150h-1000z" />
    <glyph glyph-name="quoteleft" unicode="&#x2018;" horiz-adv-x="316" 
d="M136 698h159l-62 -305h-212z" />
    <glyph glyph-name="quoteright" unicode="&#x2019;" horiz-adv-x="316" 
d="M83 698h212l-115 -305h-159z" />
    <glyph glyph-name="quotesinglbase" unicode="&#x201a;" horiz-adv-x="316" 
d="M83 182h212l-115 -305h-159z" />
    <glyph glyph-name="quotedblleft" unicode="&#x201c;" horiz-adv-x="556" 
d="M129 698h159l-62 -305h-212zM383 698h159l-62 -305h-212z" />
    <glyph glyph-name="quotedblright" unicode="&#x201d;" horiz-adv-x="556" 
d="M330 698h212l-115 -305h-159zM76 698h212l-115 -305h-159z" />
    <glyph glyph-name="quotedblbase" unicode="&#x201e;" horiz-adv-x="556" 
d="M330 182h212l-115 -305h-159zM76 182h212l-115 -305h-159z" />
    <glyph glyph-name="dagger" unicode="&#x2020;" horiz-adv-x="648" 
d="M38 526h181v172h212v-172h179v-162h-179v-519h-212v519h-181v162z" />
    <glyph glyph-name="daggerdbl" unicode="&#x2021;" horiz-adv-x="648" 
d="M219 526v172h212v-172h179v-162h-179v-175h179v-162h-179v-182h-212v182h-181v162h181v175h-181v162h181z" />
    <glyph glyph-name="bullet" unicode="&#x2022;" horiz-adv-x="500" 
d="M63 349q0 77 55 132t132 55t132 -55t55 -132t-55 -132t-132 -55t-132 55t-55 132z" />
    <glyph glyph-name="ellipsis" unicode="&#x2026;" horiz-adv-x="1000" 
d="M58 192h218v-192h-218v192zM391 192h218v-192h-218v192zM724 192h218v-192h-218v192z" />
    <glyph glyph-name="perthousand" unicode="&#x2030;" horiz-adv-x="1167" 
d="M185 326q-184 0 -184 192t184 192t184 -192t-184 -192zM185 430q40 0 40 88t-40 88t-40 -88t40 -88zM593 -12q-184 0 -184 192t184 192t184 -192t-184 -192zM593 92q40 0 40 88t-40 88t-40 -88t40 -88zM982 -12q-184 0 -184 192t184 192t184 -192t-184 -192zM982 92
q40 0 40 88t-40 88t-40 -88t40 -88zM555 729h121l-453 -760h-122z" />
    <glyph glyph-name="guilsinglleft" unicode="&#x2039;" horiz-adv-x="389" 
d="M143 486h200l-90 -216l90 -216h-200l-118 216z" />
    <glyph glyph-name="guilsinglright" unicode="&#x203a;" horiz-adv-x="389" 
d="M46 486h200l118 -216l-118 -216h-200l90 216z" />
    <glyph glyph-name="fraction" unicode="&#x2044;" horiz-adv-x="167" 
d="M-173 -31l452 760h122l-452 -760h-122z" />
    <glyph glyph-name="Euro" unicode="&#x20ac;" horiz-adv-x="684" 
d="M693 680l-44 -166q-44 15 -98 15q-83 0 -133 -69h213l-21 -82h-219q-3 -29 0 -58h202l-22 -82h-153q24 -30 60 -47t72 -17q55 0 99 14l6 -184q-63 -16 -155 -16q-135 0 -236.5 63t-133.5 187h-114l22 82h79q-2 29 0 58h-101l22 82h93q34 114 135.5 182t224.5 68
q97 0 202 -30z" />
    <glyph glyph-name="afii61289" unicode="&#x2113;" horiz-adv-x="708" 
d="M589 239l89 -89q-54 -83 -135 -121t-170 -38q-92 0 -147.5 32.5t-83.5 107.5q0 1 -1 3.5t-1 3.5q-40 -24 -50 -29l-58 99q31 20 103 62v186q0 305 247 305q103 0 157.5 -54.5t54.5 -135.5q0 -91 -61 -168t-194 -174l2 -10q5 -29 27.5 -47t58.5 -18q88 0 162 85zM339 522
v-129q47 42 73.5 90t26.5 88q0 30 -12 46.5t-32 16.5q-56 0 -56 -112z" />
    <glyph glyph-name="trademark" unicode="&#x2122;" horiz-adv-x="1000" 
d="M129 282v312h-97v104h344v-104h-97v-312h-150zM451 282v416h189l74 -217h2l74 217h189v-416h-138v214h-2l-66 -214h-116l-66 214h-2v-214h-138z" />
    <glyph glyph-name="Omega" unicode="&#x2126;" horiz-adv-x="931" 
d="M210 150v5q-62 33 -108 95.5t-46 149.5q0 131 112 219t298 88q187 0 297.5 -87.5t110.5 -222.5q0 -84 -41 -139.5t-116 -102.5v-5h170v-150h-388v118q80 51 119 105t39 137q0 85 -52.5 142t-136.5 57q-82 0 -137.5 -54.5t-55.5 -147.5q0 -77 42.5 -140.5t117.5 -98.5
v-118h-392v150h167z" />
    <glyph glyph-name="estimated" unicode="&#x212e;" horiz-adv-x="870" 
d="M836 339h-650q-5 0 -5 -4v-197q0 -13 9 -22q104 -107 245 -107q76 0 143 32t116 87h57q-54 -64 -138 -101.5t-179 -37.5q-166 0 -283 105.5t-117 254.5t117 255t283 106t284 -106t118 -255v-10zM688 365v197q0 14 -9 24q-104 102 -244 102t-244 -106q-10 -9 -10 -24v-193
q0 -7 5 -7h498q4 0 4 7z" />
    <glyph glyph-name="partialdiff" unicode="&#x2202;" horiz-adv-x="737" 
d="M115 589l-62 129q113 67 260 67q169 0 276.5 -109.5t107.5 -283.5q0 -186 -109.5 -293.5t-275.5 -107.5q-70 0 -127 24t-89.5 61.5t-50 79t-17.5 80.5q0 110 74.5 187t200.5 77q68 0 114.5 -28t69.5 -60h1v13q0 86 -52.5 146.5t-149.5 60.5q-88 0 -171 -43zM336 141h1
q49 0 85.5 40t44.5 91q-6 28 -36.5 55t-74.5 27q-52 0 -84 -33t-32 -84q0 -44 27.5 -70t68.5 -26z" />
    <glyph glyph-name="Delta" unicode="&#x2206;" horiz-adv-x="833" 
d="M22 0v94l266 615h260l262 -615v-94h-788zM256 152h303l-105 277q-33 83 -48 132h-5q-25 -76 -42 -125z" />
    <glyph glyph-name="product" unicode="&#x220f;" horiz-adv-x="891" 
d="M873 530h-123v-626h-205v626h-201v-626h-204v626h-123v164h856v-164z" />
    <glyph glyph-name="summation" unicode="&#x2211;" horiz-adv-x="709" 
d="M695 -96h-674v105l268 283l-252 276v126h628v-164h-336v-5l199 -214l-220 -238v-5h387v-164z" />
    <glyph glyph-name="minus" unicode="&#x2212;" horiz-adv-x="600" 
d="M552 171h-504v162h504v-162z" />
    <glyph glyph-name="uni2215" unicode="&#x2215;" horiz-adv-x="167" 
d="M-173 -31l452 760h122l-452 -760h-122z" />
    <glyph glyph-name="uni2219" unicode="&#x2219;" horiz-adv-x="370" 
d="M64 233q0 50 35.5 85.5t85.5 35.5t85.5 -35.5t35.5 -85.5t-35.5 -85.5t-85.5 -35.5t-85.5 35.5t-35.5 85.5z" />
    <glyph glyph-name="radical" unicode="&#x221a;" horiz-adv-x="752" 
d="M788 829l-293 -982h-159l-192 424l-85 -35l-34 92l239 98l122 -310q25 -67 31 -87h2q6 23 23 91l198 709h148z" />
    <glyph glyph-name="infinity" unicode="&#x221e;" horiz-adv-x="838" 
d="M792 290v-1q0 -90 -54.5 -143.5t-128.5 -53.5q-114 0 -192 113q-45 -56 -89 -84.5t-103 -28.5q-74 0 -127 52.5t-53 137.5q0 86 54.5 140t135.5 54q112 0 192 -109q1 2 12 14t14.5 16t15 16t18.5 17t19 14.5t23 13.5t25 9.5t29 7t31 1.5q74 -1 126 -52t52 -134zM235 190
h2q61 0 126 88q-25 38 -37.5 54t-37 31.5t-54.5 15.5q-37 0 -62.5 -26t-25.5 -71q0 -37 26.5 -64.5t62.5 -27.5zM603 379h-1q-25 0 -51 -17.5t-39.5 -32.5t-35.5 -44q42 -57 70.5 -76t62.5 -19q37 0 59 28.5t22 62.5q0 43 -23.5 70.5t-63.5 27.5z" />
    <glyph glyph-name="integral" unicode="&#x222b;" horiz-adv-x="455" 
d="M453 856l-18 -118q-20 6 -45 6q-44 0 -63 -31q-23 -36 -23 -154q0 -80 10 -219.5t10 -235.5q0 -126 -39 -193q-27 -48 -73.5 -71t-100.5 -23q-68 0 -106 16l22 124q23 -9 52 -9q36 0 56 23q30 36 30 137q0 98 -10.5 242t-10.5 230q0 88 18.5 143t59.5 94q51 51 155 51
q42 0 76 -12z" />
    <glyph glyph-name="approxequal" unicode="&#x2248;" horiz-adv-x="647" 
d="M543 486l71 -74q-79 -109 -174 -109q-36 0 -63 9t-67 31q-1 1 -13.5 7.5t-15.5 8t-14 6t-17 6t-15.5 3t-18.5 1.5q-58 0 -121 -72l-69 74q29 44 83 76.5t107 32.5q63 0 119 -34q38 -23 55.5 -30.5t41.5 -7.5q56 0 111 72zM543 273l71 -74q-80 -109 -176 -109
q-55 0 -128 40q-2 1 -11.5 6t-12 6.5t-10.5 5t-12 5t-11 4t-12 3t-11.5 1.5t-12.5 1q-36 0 -63.5 -18.5t-58.5 -53.5l-69 74q29 44 83.5 76t107.5 32q60 0 117 -32q5 -3 21.5 -13.5t24 -14t22 -8t28.5 -4.5q31 0 56.5 17t56.5 56z" />
    <glyph glyph-name="notequal" unicode="&#x2260;" horiz-adv-x="647" 
d="M489 527l-36 -77h142v-107h-190l-56 -122h246v-107h-295l-56 -120l-87 41l37 79h-141v107h189l56 122h-245v107h293l55 118z" />
    <glyph glyph-name="lessequal" unicode="&#x2264;" horiz-adv-x="647" 
d="M594 143l-541 225v114l540 224v-116l-421 -164v-2l422 -164v-117zM595 -1h-542v110h542v-110z" />
    <glyph glyph-name="greaterequal" unicode="&#x2265;" horiz-adv-x="647" 
d="M53 706l541 -225v-114l-540 -224v117l422 164v2l-423 164v116zM588 -1h-534v110h534v-110z" />
    <glyph glyph-name="lozenge" unicode="&#x25ca;" horiz-adv-x="752" 
d="M703 346l-251 -391h-156l-248 391l248 392h156zM525 342l-132 223q-13 21 -20 36h-2q-3 -6 -19 -36l-128 -216l133 -224q10 -16 18 -34h4q2 4 8.5 16.5t9.5 17.5z" />
    </font>
</defs>
</svg>
